<?xml version="1.0" encoding="utf-8"?>
<!-- Generator: Adobe Illustrator 19.1.0, SVG Export Plug-In . SVG Version: 6.00 Build 0)  -->
<svg version="1.1" id="Layer_1" xmlns="http://www.w3.org/2000/svg" xmlns:xlink="http://www.w3.org/1999/xlink" x="0px" y="0px"
	 viewBox="0 0 792 612" style="enable-background:new 0 0 792 612;" xml:space="preserve">
<style type="text/css">
	.st0{fill:#010101;}
	.st1{fill:#BC2327;}
	.st2{fill:#FFFFFF;}
	.st3{fill:#27B0BA;}
</style>
<g>
	<path class="st0" d="M499.5,252.8c-1.6,1-3.2,2.3-4.4,4c-3.2-2.7-7.1-3.9-11.3-3.6c-5.5,0.5-9.9,3.3-13,8.3
		c-3.1,5-4.4,10.5-3.9,16.3c0.5,6,2.8,11,6.7,15c3.9,4,8.3,5.7,13.1,5.3c2.2-0.2,3.8-0.5,5.5-1.5c1.7-1.1,3.3-2.2,4.6-4.1l0.4,3.1
		c0.2,2.7-0.3,5.4-2.3,7.4c-1.9,2-4.6,3.1-7.7,3.4c-4,0.4-8.9-1-14.8-4.1l1.3,14.4c6.8,2.1,12.7,3,18.4,2.5
		c7.8-0.7,13.8-3.5,17.6-8.3c3.9-4.8,5.6-10.5,5-17.1l-4-44.6C510.8,249.2,504.2,249.6,499.5,252.8z M495.7,276
		c0.3,2.8,0,4.9-0.7,6.4c-0.7,1.5-1.9,2.3-3.7,2.5c-1.8,0.2-3.3-0.6-4.6-2.4c-1.3-1.8-2.1-4.1-2.3-7.1c-0.3-2.9,0.1-5.4,1.1-7.3
		c1-1.9,2.5-3,4.5-3.2c0.8-0.1,1.6,0,2.4,0.3c0.8,0.3,1.5,0.8,2.5,1.5L495.7,276z M394.2,312.4c0.7,0.6,1.4,1.4,2.2,2
		c0.8,0.7,1.7,1.2,2.6,1.6c2,1,4.2,1.2,6.4,1.2c2,0,4-0.1,5.9-0.3c-0.1-0.9-0.2-1.8-0.3-2.7l-0.9-9.7c-0.7-7.6-1.4-15.1-2-22.7
		c-0.5-5.6-2.7-10.8-7.1-14.5c-1.7-1.4-3.6-2.6-5.7-3.3c-2.3-0.8-4.8-1.3-7.2-1.5c-3.4-0.3-6.8-0.3-10.2,0
		c-4.3,0.4-7.9,1.2-11.6,2.3l1.2,13.3c1.4,1,2.9,2.1,4.3,3.2c2.2-1.9,4.8-3.4,7.6-4.2c1.4-0.4,2.8-0.6,4.3-0.6
		c3-0.1,5.7,1.9,6.6,4.8c-17.6,3.9-24.2,11.1-23.3,21.5c0.4,4.6,2.3,8.3,5.8,11.3c3.5,2.9,7.2,4.2,11.2,3.8c2.1-0.2,4.4-0.6,6.2-1.8
		C391.7,315.1,393.1,313.9,394.2,312.4z M382.6,299c-0.2-2.5,0.8-4.8,2.8-6.3c2.1-1.6,4.7-2.3,7.3-2.8l0.6,6.6
		c0.2,2.2-0.2,3.3-1,4.9c-0.8,1.6-2.3,2.4-4,2.5l0.2,0C385.6,304.3,382.9,301.9,382.6,299z M463.9,305.7c0.6,1,1.4,1.5,1.4,1.6
		l0.1,1.2c-6.9,0.6-13.8,1.2-20.7,1.9l-2.9-32.1c-0.3-2.9-1.4-4.3-3.5-4.1c-4.6,0.3-4.3,5.5-4.1,8.6c0.2,2.1,0.4,4.2,0.6,6.3
		c0.7,7.3,1.3,14.6,2,22l-16.9,1.5c-0.4-4-0.7-8-1.1-12c-0.6-7.2-1.3-14.3-1.9-21.5c-0.6-7.2-1.3-14.3-1.9-21.5
		c1.6-0.4,3.2-0.5,4.8-0.4c5.4,0.3,10.6,3.2,13.6,7.8c1.3-2.3,2.9-4.1,4.7-5.4c1.8-1.3,3.9-2,6.3-2.2c1.6-0.1,3.3,0,4.9,0.4
		c2.7,0.8,5.3,2.8,6.9,5.1c1.8,2.6,2.4,5.8,2.7,8.9c0,0,2.1,22.9,2.1,23.5c0.5,3,0.5,3.8,1.5,7C462.8,303.2,463.4,304.7,463.9,305.7
		z M361.4,312.6c0.7,1.4,1.5,2.8,2.9,3.7l0.1,1.3c-6.7,0.6-13.5,1.2-20.2,1.8l-2.8-31.6c-0.4-4-1.8-6-4.1-5.8
		c-4.5,0.4-4.4,6.2-4.1,9.5l2.6,28.6l-16.9,1.5l-2.8-31.6c-0.4-4-1.8-6-4.1-5.8c-2.9,0.3-4.1,3.6-4.2,6.1c0,1.7,0.1,3.1,0.2,5
		l2.4,27l-16.9,1.5c-0.4-4-0.7-8.1-1.1-12.1c-0.6-7.2-1.3-14.4-1.9-21.6c-0.7-7.2-1.3-14.5-2-21.7c1.6-0.5,3.2-0.7,4.9-0.7
		c5.3,0,10.5,2.4,13.8,6.5c1-1.4,2.2-2.5,3.5-3.4c1.9-1.3,4-2.1,6.4-2.3c5.2-0.5,9.4,2,12.4,7.3c1.4-2.9,3.1-5.2,5.1-6.8
		c2-1.6,4.4-2.5,7.2-2.8c4.5-0.4,8.1,0.9,11.1,4c3,3.1,4.6,7.2,5.1,12.4l2.4,26.5C360.6,310.5,360.9,311.5,361.4,312.6z
		 M550.9,298.3c0.7,0.6,1.4,1.4,2.2,2c0.8,0.7,1.7,1.2,2.6,1.6c2,1,4.2,1.2,6.4,1.2c2,0,3.8-0.1,5.8-0.2c-0.1-0.9-0.3-1.8-0.4-2.7
		l-0.9-9.7c-0.7-7.6-1.4-15.1-2-22.7c-0.5-5.6-2.5-10.9-6.9-14.5c-1.7-1.4-3.6-2.6-5.7-3.3c-2.3-0.8-4.8-1.3-7.2-1.5
		c-3.4-0.3-6.9-0.3-10.3,0c-4.3,0.4-8,1.2-11.7,2.3l1.2,13.3c1.5,1,3,2.1,4.4,3.2c2.2-1.9,4.8-3.4,7.7-4.2c1.4-0.4,2.9-0.6,4.3-0.6
		c3-0.1,5.7,1.9,6.6,4.8c-17.6,3.9-24.2,11.1-23.3,21.5c0.4,4.6,2.3,8.3,5.8,11.3c3.5,2.9,7.2,4.2,11.2,3.8c2.1-0.2,4.4-0.6,6.2-1.8
		C548.4,301,549.8,299.7,550.9,298.3z M539.4,284.9c-0.2-2.5,0.7-4.8,2.7-6.3c2.1-1.6,4.8-2.3,7.1-2.7l0.6,6.6
		c0.2,2.2-0.1,3.3-0.9,4.9c-0.8,1.6-2.2,2.4-3.9,2.5l0.2,0C542.3,290.1,539.6,287.8,539.4,284.9z"/>
	<path class="st1" d="M272.3,302.3c0,16.6-13.7,30.1-30.6,30.1c-16.9,0-30.6-13.5-30.6-30.1c0-16.6,13.7-30.1,30.6-30.1
		C258.6,272.1,272.3,285.6,272.3,302.3"/>
	<path class="st2" d="M237.7,292.2h4.1c2.8,0,5.1,2.2,5.1,5c0,2.8-2.3,5-5.1,5h-4.1V292.2z M237.7,318.4v-10h4.4l7.6,10h7.8
		l-9.2-12.1c2.9-2,4.8-5.3,4.8-9.1c0-6.2-5.1-11.2-11.3-11.2h-10.3v32.4H237.7z"/>
	<path class="st3" d="M605.8,293.2c-4.3-0.2-7,3.6-7.2,7.4c-1.9,35-29.1,60-55.2,69.3c-32.1,11.4-70.3,10-102.1-3.9
		c-1.6-0.7-3.5-0.1-4.4,1.4c-12.9,21.6-47.2,31.2-75.7,31.2l-0.5,0c-12.8-0.1-56-2.5-77.5-32.1c-1.1-1.6-3.2-2.5-5.1-1.3
		c-19.5,13.2-45.6,12.5-65-1.8c-0.5-0.4-1.2-0.4-1.7-0.2l-22.2,11.3l11.8-17.7c0.5-0.7,0.4-1.7-0.2-2.4
		c-17.6-18-24.5-42.4-19.8-70.4c3.8-22.5,21.8-47.5,45.4-50.3c3-0.8,5.3-3.7,5.3-6.9c0-2.1-0.9-4-2.5-5.4c-1.7-1.4-4-2-6.3-1.6
		c-26.2,4.6-45.2,29.1-52.4,51.4c-9.2,28.2-3.9,61.8,13.5,85.5l0.2,0.3L167,387.4c-1.4,2.5-0.6,4.8,0.7,6.2c1.2,1.4,3.5,2.5,6.1,1.4
		l38.7-15.9l0.2,0.1c10.2,6.2,21.9,9.5,33.7,9.5c9.8,0,21.7-2.9,31.1-7.6l0.3-0.2l0.3,0.2c7.2,6.4,17,14.4,28.4,19.9
		c29.6,14.2,72.1,14.8,106,1.6c12-4.7,22.5-11.6,31.3-20.8c30.1,11,64.7,13.2,95.8,4.7c24.3-6.7,46.9-22.7,60.5-44
		c8.1-12.7,12.8-27.4,12.8-42.4C612.6,296.5,609.5,293.3,605.8,293.2C601.5,293,609.5,293.3,605.8,293.2
		C601.5,293,609.5,293.3,605.8,293.2z"/>
</g>
</svg>
